<svg width="500" height="500" viewBox="0 0 500 500" fill="none" xmlns="http://www.w3.org/2000/svg">
<path d="M90.4545 232.286V374H55V126H90.4545V179.143H108.182V196.857H125.909V214.571H143.636V232.286H161.364V250H179.091V267.714H196.818V126H232.273V374H196.818V320.857H179.091V303.143H161.364V285.429H143.636V267.714H125.909V250H108.182V232.286H90.4545Z" fill="#A9C9E0"/>
<path d="M267.727 374V126H303.182V338.571H445V374H267.727Z" fill="#A9C9E0"/>
<path d="M62.3585 393.286V429.714H80.7547V426.071H84.434V396.929H80.7547V393.286H62.3585ZM55 437V386H84.434V389.643H88.1132V393.286H91.7925V429.714H88.1132V433.357H84.434V437H55Z" fill="white"/>
<path d="M135.943 386V393.286H106.509V407.857H128.585V415.143H106.509V429.714H135.943V437H99.1509V386H135.943Z" fill="white"/>
<path d="M146.981 422.429H143.302V386H150.66V418.786H154.34V422.429H158.019V426.071H165.377V422.429H169.057V418.786H172.736V386H180.094V422.429H176.415V426.071H172.736V429.714H169.057V433.357H165.377V437H158.019V433.357H154.34V429.714H150.66V426.071H146.981V422.429Z" fill="white"/>
<path d="M224.245 386V393.286H194.811V407.857H216.887V415.143H194.811V429.714H224.245V437H187.453V386H224.245Z" fill="white"/>
<path d="M231.604 437V386H238.962V429.714H268.396V437H231.604Z" fill="white"/>
<path d="M301.509 393.286H286.792V396.929H283.113V426.071H286.792V429.714H301.509V426.071H305.189V396.929H301.509V393.286ZM283.113 389.643V386H305.189V389.643H308.868V393.286H312.547V429.714H308.868V433.357H305.189V437H283.113V433.357H279.434V429.714H275.755V393.286H279.434V389.643H283.113Z" fill="white"/>
<path d="M327.264 393.286V407.857H345.66V404.214H349.34V396.929H345.66V393.286H327.264ZM327.264 415.143V437H319.906V386H349.34V389.643H353.019V393.286H356.698V407.857H353.019V411.5H349.34V415.143H327.264Z" fill="white"/>
<path d="M400.849 386V393.286H371.415V407.857H393.491V415.143H371.415V429.714H400.849V437H364.057V386H400.849Z" fill="white"/>
<path d="M415.566 393.286V407.857H433.962V404.214H437.642V396.929H433.962V393.286H415.566ZM419.245 415.143H415.566V437H408.208V386H437.642V389.643H441.321V393.286H445V407.857H441.321V411.5H437.642V415.143H430.283V418.786H433.962V422.429H437.642V426.071H441.321V429.714H445V437H437.642V433.357H433.962V429.714H430.283V426.071H426.604V422.429H422.925V418.786H419.245V415.143Z" fill="white"/>
</svg>
